<?xml version="1.0" standalone="no"?><!DOCTYPE svg PUBLIC "-//W3C//DTD SVG 1.1//EN" "http://www.w3.org/Graphics/SVG/1.1/DTD/svg11.dtd"><svg t="1640767049887" class="icon" viewBox="0 0 1034 1024" version="1.1" xmlns="http://www.w3.org/2000/svg" p-id="694" xmlns:xlink="http://www.w3.org/1999/xlink" width="129.25" height="128"><defs><style type="text/css"></style></defs><path d="M0 456.091178l124.886057-136.785313 41.47901 37.830653L41.47901 493.921831zM138.07627 861.620061l199.649306-207.507305 40.412567 38.897096-199.593177 207.507305zM563.923694 986.281604l111.302944-123.370586 41.647396 37.606139-111.302945 123.370586z" fill="#81DCA0" p-id="695"></path><path d="M775.69677 936.439438h-26.380426c-142.00527-15.715998-299.726538-117.869987-471.479947-303.655537C-6.735428 323.515507 129.0957 113.594674 145.372984 90.581962 178.488837 43.995253 230.688403-25.042882 427.13838 9.195543a548.376081 548.376081 0 0 1 112.257131 34.79971l-21.890141 51.63828a486.634659 486.634659 0 0 0-101.031417-30.870711c-164.456696-28.625568-198.69512 19.644998-224.51426 56.128565-14.032141 19.644998-126.850557 195.888692 127.411842 471.479947 162.211553 175.682409 308.707108 272.223541 434.99638 285.694397 92.050847 3.929 157.159982-15.154713 191.398407-56.128565s42.657709-118.431272 17.961141-220.023976a719.006919 719.006919 0 0 0-30.870711-94.857275l51.63828-21.328854a693.187779 693.187779 0 0 1 33.677139 103.276559c29.186854 119.553844 19.083712 209.920834-29.186854 268.294542a261.559113 261.559113 0 0 1-213.288547 79.141276z" fill="#09CCEB" p-id="696"></path><path d="M777.380627 667.022326a329.474677 329.474677 0 0 1-124.044129-28.064283l-5.612857-3.367714a1354.943562 1354.943562 0 0 1-214.411118-204.307977 239.107687 239.107687 0 0 1-15.154713-307.023251v-3.367714c93.173418-107.766845 218.340118-122.921558 373.816244-48.270566 131.340842 79.141277 272.223541 272.784826 178.488837 460.254234a207.675691 207.675691 0 0 1-193.082264 134.147271z m-97.663704-78.579991c112.25713 46.586709 189.71455 21.89014 240.230259-78.579991 77.45742-154.91484-44.341566-318.81025-156.037411-385.603243-125.727986-63.425279-224.51426-56.128565-297.481395 31.431997a185.224265 185.224265 0 0 0 11.225713 239.107687 1311.163281 1311.163281 0 0 0 202.062834 193.64355z" fill="#09CCEB" p-id="697"></path></svg>